<?xml version="1.0" encoding="utf-8"?>
<!-- Generator: Adobe Illustrator 25.4.1, SVG Export Plug-In . SVG Version: 6.00 Build 0)  -->
<svg version="1.1" id="Layer_1" xmlns="http://www.w3.org/2000/svg" xmlns:xlink="http://www.w3.org/1999/xlink" x="0px" y="0px"
	 viewBox="0 0 744.6 786.1" style="enable-background:new 0 0 744.6 786.1;" xml:space="preserve">
<style type="text/css">
	.st0{fill:url(#SVGID_1_);}
	.st1{fill:#FD6500;}
	.st2{fill:#FDB901;}
	.st3{fill:#FD2350;}
	.st4{fill:url(#SVGID_00000151508772672547789300000013067175747870510754_);}
	.st5{fill:url(#SVGID_00000041283612359308047880000005087110168653682582_);}
	.st6{fill:#FD315B;}
	.st7{fill:url(#SVGID_00000153674672257511931610000016230223931063418286_);}
	.st8{fill:url(#SVGID_00000016047592197566254050000013236831923459346335_);}
	.st9{fill:#E2E2E4;}
	.st10{fill:url(#SVGID_00000104675600593141614090000010693240934960485792_);}
	.st11{enable-background:new    ;}
	.st12{clip-path:url(#SVGID_00000125576026482137729400000004892876568900322451_);}
	.st13{fill:#BFBDC0;}
	.st14{clip-path:url(#SVGID_00000029027317885942336510000012586498304523716992_);}
	.st15{fill:#E6E6E8;}
	.st16{clip-path:url(#SVGID_00000038374833330903217820000005052172718501475738_);}
	.st17{clip-path:url(#SVGID_00000120543674617829237420000014897149303648023176_);}
	.st18{clip-path:url(#SVGID_00000094620572673478558310000002388007374790651283_);}
	.st19{clip-path:url(#SVGID_00000036248036529088442900000002294312158907665815_);}
	.st20{clip-path:url(#SVGID_00000043439807613687207470000003270829403144948909_);enable-background:new    ;}
	.st21{clip-path:url(#SVGID_00000091718449290819648530000014122576231193720212_);}
	.st22{clip-path:url(#SVGID_00000082354157958780724580000007895041732622318257_);}
	.st23{clip-path:url(#SVGID_00000048467164531409199310000013146004640082765725_);}
	.st24{clip-path:url(#SVGID_00000178172794336010915770000001072733792265451690_);}
	.st25{fill:#F7F7F7;stroke:#9E9E9E;stroke-width:0.25;stroke-miterlimit:10;}
	.st26{clip-path:url(#SVGID_00000129904368155547715930000005941174935633620670_);}
</style>
<linearGradient id="SVGID_1_" gradientUnits="userSpaceOnUse" x1="0.5855" y1="502.2831" x2="743.9505" y2="502.2831">
	<stop  offset="0.4148" style="stop-color:#FDB901"/>
	<stop  offset="0.5917" style="stop-color:#FD6500"/>
</linearGradient>
<path class="st0" d="M703.3,579.4L425.7,769.7c-31.9,21.9-73.9,21.9-105.8,0.1L41.4,579.5C-13,542.2-13,461.9,41.5,424.8l278.4-190
	c31.9-21.8,73.9-21.7,105.7,0.1l277.6,190C757.5,462,757.5,542.2,703.3,579.4z"/>
<polygon class="st1" points="743.4,427.1 743.9,503.4 634.3,502.3 "/>
<polygon class="st2" points="0,427.1 0.6,506.3 25.3,513.5 43.5,450.8 "/>
<path class="st3" d="M702.7,504.2L425.1,694.5c-31.9,21.9-73.9,21.9-105.8,0.1L40.8,504.2c-54.4-37.2-54.4-117.5,0.1-154.7
	l278.4-190c31.9-21.8,73.9-21.7,105.7,0.1l277.6,190C756.9,386.8,757,466.9,702.7,504.2z"/>
<linearGradient id="SVGID_00000119828075251417949400000009538829048063333553_" gradientUnits="userSpaceOnUse" x1="1.1886" y1="427.2281" x2="744.5536" y2="427.2281">
	<stop  offset="0.4148" style="stop-color:#FD3A5B"/>
	<stop  offset="0.5917" style="stop-color:#C23845"/>
</linearGradient>
<path style="fill:url(#SVGID_00000119828075251417949400000009538829048063333553_);" d="M703.9,504.3L426.3,694.7
	c-31.9,21.9-73.9,21.9-105.8,0.1L42,504.4c-54.4-37.2-54.4-117.5,0.1-154.7l278.4-190c31.9-21.8,73.9-21.7,105.7,0.1l277.6,190
	C758.1,387,758.1,467.1,703.9,504.3z"/>
<linearGradient id="SVGID_00000102502997057430833690000011285566813204411051_" gradientUnits="userSpaceOnUse" x1="634.9081" y1="390.1674" x2="744.5441" y2="390.1674">
	<stop  offset="0.4148" style="stop-color:#FD3A5B"/>
	<stop  offset="0.5917" style="stop-color:#C23845"/>
</linearGradient>
<polygon style="fill:url(#SVGID_00000102502997057430833690000011285566813204411051_);" points="744,352 744.5,428.3 634.9,427.2 
	"/>
<polygon class="st6" points="0.6,352 1.2,431.2 26,438.4 44.1,375.7 "/>
<path class="st3" d="M703.3,429.1L425.7,619.4c-31.9,21.9-73.9,21.9-105.8,0.1L41.4,429.2C-13,392-13,311.6,41.5,274.5l278.4-190
	c31.9-21.8,73.9-21.7,105.7,0.1l277.6,190C757.5,311.7,757.6,391.9,703.3,429.1z"/>
<linearGradient id="SVGID_00000028286688523928174540000013451708200361776528_" gradientUnits="userSpaceOnUse" x1="1.2844" y1="359.0737" x2="744.6494" y2="359.0737">
	<stop  offset="0.4148" style="stop-color:#E2E2E4"/>
	<stop  offset="0.5917" style="stop-color:#B7B8BA"/>
</linearGradient>
<path style="fill:url(#SVGID_00000028286688523928174540000013451708200361776528_);" d="M704,436.2L426.4,626.5
	c-31.9,21.9-73.9,21.9-105.8,0.1L42.1,436.2c-54.4-37.2-54.4-117.5,0.1-154.7l278.4-190c31.9-21.8,73.9-21.7,105.7,0.1l277.6,190
	C758.2,318.8,758.2,398.9,704,436.2z"/>
<linearGradient id="SVGID_00000066479494969854778050000000101575615728285333_" gradientUnits="userSpaceOnUse" x1="635.004" y1="322.013" x2="744.64" y2="322.013">
	<stop  offset="0.4148" style="stop-color:#E2E2E4"/>
	<stop  offset="0.5917" style="stop-color:#B7B8BA"/>
</linearGradient>
<polygon style="fill:url(#SVGID_00000066479494969854778050000000101575615728285333_);" points="744.1,283.9 744.6,360.2 
	635,359.1 "/>
<polygon class="st9" points="0.7,283.9 1.3,363.1 26,370.2 44.2,307.6 "/>
<linearGradient id="SVGID_00000173867483697905834800000017807789324811539584_" gradientUnits="userSpaceOnUse" x1="137.4264" y1="86.5421" x2="607.3355" y2="480.8426">
	<stop  offset="0.6129" style="stop-color:#F2F2F2"/>
	<stop  offset="1" style="stop-color:#FDFDFD"/>
</linearGradient>
<path style="fill:url(#SVGID_00000173867483697905834800000017807789324811539584_);" d="M703.4,360.9L425.8,551.3
	c-31.9,21.9-73.9,21.9-105.8,0.1L41.5,361c-54.4-37.2-54.4-117.5,0.1-154.7L320,16.3c31.9-21.8,73.9-21.7,105.7,0.1l277.6,190
	C757.6,243.6,757.7,323.7,703.4,360.9z"/>
<g>
	<g class="st11">
		<g class="st11">
			<defs>
				<path id="SVGID_00000134222664170126756900000015226452988909110186_" class="st11" d="M564,132.8l-0.2,46.8
					c-8.6,5.3-16.9,10.8-27.1,18.4l0.2-46.8C547.1,143.6,555.4,138,564,132.8z"/>
			</defs>
			<clipPath id="SVGID_00000015355861400349439760000004318549947099857798_">
				<use xlink:href="#SVGID_00000134222664170126756900000015226452988909110186_"  style="overflow:visible;"/>
			</clipPath>
			<g style="clip-path:url(#SVGID_00000015355861400349439760000004318549947099857798_);">
				<path class="st13" d="M564,132.8l-0.2,46.8c-8.6,5.3-16.9,10.8-27.1,18.4l0.2-46.8C547.1,143.6,555.4,138,564,132.8"/>
			</g>
		</g>
		<g>
			<polygon class="st13" points="536.9,151.2 536.7,197.9 532.2,201.3 532.4,154.5 			"/>
		</g>
		<g class="st11">
			<defs>
				<path id="SVGID_00000052068544655929090120000005017723012502098591_" class="st11" d="M413.8,182.5l-0.2,46.8
					c-4.9-3.6-9.7-6.6-14.6-9l0.2-46.8C404.1,176,408.8,178.9,413.8,182.5z"/>
			</defs>
			<clipPath id="SVGID_00000075877226208358660120000012225806566734037672_">
				<use xlink:href="#SVGID_00000052068544655929090120000005017723012502098591_"  style="overflow:visible;"/>
			</clipPath>
			<g style="clip-path:url(#SVGID_00000075877226208358660120000012225806566734037672_);">
				<path class="st15" d="M413.8,182.5l-0.2,46.8c-4.9-3.6-9.7-6.6-14.6-9l0.2-46.8C404.1,176,408.8,178.9,413.8,182.5"/>
			</g>
		</g>
		<g>
			<polygon class="st15" points="426.4,191.9 426.2,238.6 413.6,229.3 413.8,182.5 			"/>
		</g>
		<g class="st11">
			<defs>
				<path id="SVGID_00000144299187013244472350000016552751381721914002_" class="st11" d="M517.9,209.9l-0.2,46.8
					c-4.2-11.2-7.6-16.6-18.3-30.9l0.2-46.8C510.4,193.3,513.7,198.6,517.9,209.9z"/>
			</defs>
			<clipPath id="SVGID_00000135682240966509688300000011508792961009094554_">
				<use xlink:href="#SVGID_00000144299187013244472350000016552751381721914002_"  style="overflow:visible;"/>
			</clipPath>
			<g style="clip-path:url(#SVGID_00000135682240966509688300000011508792961009094554_);">
				<path class="st15" d="M517.9,209.9l-0.2,46.8c-4.2-11.2-7.6-16.6-18.3-30.9l0.2-46.8C510.4,193.3,513.7,198.6,517.9,209.9"/>
			</g>
		</g>
		<g>
			<polygon class="st13" points="499.6,179 499.4,225.7 442.5,268.1 442.7,221.3 			"/>
		</g>
		<g class="st11">
			<defs>
				<path id="SVGID_00000113320127195223233370000005647613472190331582_" class="st11" d="M524.4,237.6l-0.2,46.8
					c-0.6-9.8-2.7-18.3-6.5-27.7l0.2-46.8C521.7,219.4,523.7,227.8,524.4,237.6z"/>
			</defs>
			<clipPath id="SVGID_00000000926998843389345350000001410718391030047678_">
				<use xlink:href="#SVGID_00000113320127195223233370000005647613472190331582_"  style="overflow:visible;"/>
			</clipPath>
			<g style="clip-path:url(#SVGID_00000000926998843389345350000001410718391030047678_);">
				<path class="st15" d="M524.4,237.6l-0.2,46.8c-0.6-9.8-2.7-18.3-6.5-27.7l0.2-46.8C521.7,219.4,523.7,227.8,524.4,237.6"/>
			</g>
		</g>
		<g class="st11">
			<defs>
				<path id="SVGID_00000020379201157342902110000010268618644675141509_" class="st11" d="M126.3,237.8l-0.2,46.8
					c-6.7-10.7-11.3-16.9-16.5-22.4l0.2-46.8C115,220.9,119.6,227.1,126.3,237.8z"/>
			</defs>
			<clipPath id="SVGID_00000052088458691202295640000016854342388151732663_">
				<use xlink:href="#SVGID_00000020379201157342902110000010268618644675141509_"  style="overflow:visible;"/>
			</clipPath>
			<g style="clip-path:url(#SVGID_00000052088458691202295640000016854342388151732663_);">
				<path class="st15" d="M126.3,237.8l-0.2,46.8c-6.7-10.7-11.3-16.9-16.5-22.4l0.2-46.8C115,220.9,119.6,227.1,126.3,237.8"/>
			</g>
		</g>
		<g>
			<polygon class="st13" points="411,245 410.8,291.8 406.8,294.7 407,248 			"/>
		</g>
		<g class="st11">
			<defs>
				<path id="SVGID_00000150785419863921702990000003879837861749065403_" class="st11" d="M407,248l-0.2,46.8
					c-3.2,2.4-6.2,4.7-9.1,7l0.2-46.8C400.8,252.7,403.9,250.3,407,248z"/>
			</defs>
			<clipPath id="SVGID_00000145764170684644419830000000867834468106673291_">
				<use xlink:href="#SVGID_00000150785419863921702990000003879837861749065403_"  style="overflow:visible;"/>
			</clipPath>
			<g style="clip-path:url(#SVGID_00000145764170684644419830000000867834468106673291_);">
				<path class="st13" d="M407,248l-0.2,46.8c-3.2,2.4-6.2,4.7-9.1,7l0.2-46.8C400.8,252.7,403.9,250.3,407,248"/>
			</g>
		</g>
		<g>
			<polygon class="st15" points="260.4,254.5 260.2,301.2 174.8,268.6 175,221.8 			"/>
		</g>
		<g class="st11">
			<defs>
				<path id="SVGID_00000037664380434942333840000011274125143587704209_" class="st11" d="M680.4,238l-0.2,46.8
					c-44.8,17.3-74.7,24.6-115.1,28.6l0.2-46.8C605.7,262.6,635.6,255.3,680.4,238z"/>
			</defs>
			<clipPath id="SVGID_00000150102961475759300400000018336981873623264649_">
				<use xlink:href="#SVGID_00000037664380434942333840000011274125143587704209_"  style="overflow:visible;"/>
			</clipPath>
			<g style="clip-path:url(#SVGID_00000150102961475759300400000018336981873623264649_);enable-background:new    ;">
				<path class="st13" d="M680.4,238l-0.2,46.8c-17.6,6.8-32.9,12-47.5,16.2l0.2-46.8C647.5,250.1,662.8,244.8,680.4,238"/>
				<path class="st13" d="M632.9,254.2l-0.2,46.8c-15.3,4.3-29.8,7.4-45.2,9.7l0.2-46.8C603.1,261.6,617.6,258.5,632.9,254.2"/>
				<path class="st13" d="M587.7,263.9l-0.2,46.8c-7.2,1.1-14.6,2-22.4,2.7l0.2-46.8C573.1,265.9,580.5,265,587.7,263.9"/>
			</g>
		</g>
		<g class="st11">
			<defs>
				<path id="SVGID_00000029042563525296022490000017340747628053760672_" class="st11" d="M522.2,268l-0.2,46.8
					c-21.5-0.7-40-3-59.3-7.1c-18.3-3.9-28.2-6.8-51.9-15.9L411,245c23.7,9,33.5,11.9,51.9,15.9C482.2,265,500.7,267.3,522.2,268z"
					/>
			</defs>
			<clipPath id="SVGID_00000158003666264880657150000006207700676262817430_">
				<use xlink:href="#SVGID_00000029042563525296022490000017340747628053760672_"  style="overflow:visible;"/>
			</clipPath>
			<g style="clip-path:url(#SVGID_00000158003666264880657150000006207700676262817430_);">
				<path class="st15" d="M522.2,268l-0.2,46.8c-6.7-0.2-13.1-0.6-19.3-1.1l0.2-46.8C509.2,267.4,515.5,267.8,522.2,268"/>
				<path class="st15" d="M502.9,266.9l-0.2,46.8c-13.8-1.2-26.7-3.2-40.1-6c-2.4-0.5-4.7-1-6.9-1.5l0.2-46.8c2.2,0.5,4.5,1,6.9,1.5
					C476.2,263.7,489.1,265.7,502.9,266.9"/>
				<path class="st15" d="M455.9,259.4l-0.2,46.8c-14.3-3.3-24.4-6.5-44.9-14.3L411,245C431.5,252.9,441.6,256.1,455.9,259.4"/>
			</g>
		</g>
		<g>
			<polygon class="st15" points="331.5,282.7 331.3,329.5 307.1,320.2 307.3,273.5 			"/>
		</g>
		<g>
			<polygon class="st13" points="410.3,258.6 410.1,305.4 359.8,342.9 360,296.1 			"/>
		</g>
		<g class="st11">
			<defs>
				<path id="SVGID_00000025400523155100489360000014818932005917326484_" class="st11" d="M360,296.1l-0.2,46.8
					c-12.1-6.4-19-9.6-28.5-13.4l0.2-46.8C341,286.5,347.9,289.7,360,296.1z"/>
			</defs>
			<clipPath id="SVGID_00000092432435211910368210000010729664622435281821_">
				<use xlink:href="#SVGID_00000025400523155100489360000014818932005917326484_"  style="overflow:visible;"/>
			</clipPath>
			<g style="clip-path:url(#SVGID_00000092432435211910368210000010729664622435281821_);">
				<path class="st15" d="M360,296.1l-0.2,46.8c-12.1-6.4-19-9.6-28.5-13.4l0.2-46.8C341,286.5,347.9,289.7,360,296.1"/>
			</g>
		</g>
		<g>
			<polygon class="st13" points="307.3,273.5 307.1,320.2 245.9,365.8 246.1,319.1 			"/>
		</g>
		<g class="st11">
			<defs>
				<path id="SVGID_00000156571292196554587790000016914813236268893572_" class="st11" d="M565.3,266.6l-0.2,46.8
					c-5,28.9-15.9,52.9-39.9,87.2l0.2-46.8C549.5,319.5,560.4,295.5,565.3,266.6z"/>
			</defs>
			<clipPath id="SVGID_00000013160183333658364680000018221349766576774292_">
				<use xlink:href="#SVGID_00000156571292196554587790000016914813236268893572_"  style="overflow:visible;"/>
			</clipPath>
			<g style="clip-path:url(#SVGID_00000013160183333658364680000018221349766576774292_);">
				<path class="st13" d="M565.3,266.6l-0.2,46.8c-0.9,5.3-2,10.5-3.4,15.6l0.2-46.8C563.3,277.1,564.4,272,565.3,266.6"/>
				<path class="st13" d="M561.9,282.2l-0.2,46.8c-4.1,15.5-10.6,30.3-20.6,47.1l0.2-46.8C551.4,312.5,557.8,297.7,561.9,282.2"/>
				<path class="st13" d="M541.4,329.4l-0.2,46.8c-4.5,7.6-9.8,15.7-15.9,24.5l0.2-46.8C531.6,345.1,536.8,337,541.4,329.4"/>
			</g>
		</g>
		<g class="st11">
			<defs>
				<path id="SVGID_00000117671357565782238680000013962626981356913544_" class="st11" d="M525.4,353.8l-0.2,46.8
					c-15.8-5.2-27.6-7.9-46.2-9.6l0.2-46.8C497.8,346,509.7,348.6,525.4,353.8z"/>
			</defs>
			<clipPath id="SVGID_00000041982503127650744210000006975868865241125805_">
				<use xlink:href="#SVGID_00000117671357565782238680000013962626981356913544_"  style="overflow:visible;"/>
			</clipPath>
			<g style="clip-path:url(#SVGID_00000041982503127650744210000006975868865241125805_);">
				<path class="st15" d="M525.4,353.8l-0.2,46.8c-6.8-2.3-12.9-4-19.2-5.5l0.2-46.8C512.5,349.8,518.6,351.5,525.4,353.8"/>
				<path class="st15" d="M506.3,348.3l-0.2,46.8c-8.1-1.9-16.5-3.1-27-4.1l0.2-46.8C489.8,345.2,498.2,346.5,506.3,348.3"/>
			</g>
		</g>
		<g>
			<polygon class="st15" points="210.3,368.5 210.1,415.3 126.1,284.6 126.3,237.8 			"/>
		</g>
		<g>
			<polygon class="st13" points="276.7,358.2 276.5,405 226.2,442.4 226.4,395.7 			"/>
		</g>
		<g>
			<path class="st25" d="M567.1,234.5c35.8-5.3,62.6-14.1,99.3-32.4c2.3,13.9,5.8,22.3,14,35.9c-44.8,17.3-74.7,24.6-115.1,28.6
				c-5,28.9-15.9,52.9-39.9,87.2c-15.8-5.2-27.6-7.9-46.2-9.6c25.6-31.4,37.3-52.5,42.9-76.3c-21.5-0.7-40-3-59.3-7.1
				c-18.3-3.9-28.2-6.8-51.9-15.9L407,248c-3.2,2.4-6.2,4.7-9.1,7c4.7,1.5,8.8,2.7,12.4,3.7L360,296.1c-12.1-6.4-19-9.6-28.5-13.4
				l-24.2-9.2l-61.2,45.6l12.6,17.9c5.9,8.5,11.1,14.5,18,21.2l-50.3,37.5c-3.3-7.2-6.5-12.5-16.1-27.2l-84-130.7
				c-6.7-10.7-11.3-16.9-16.5-22.4l56.1-41.8c7.8,3.5,14.9,6.5,30.7,11.8l161.7,56.1c6.6-4.1,13.3-8.8,21.4-14.9l46.7-34.8
				l-12.7-9.3c-4.9-3.6-9.7-6.6-14.6-9l33.9-25.3c3.4,3.6,7.1,7,12.1,10.6l12.9,9.5l49.6-37c11-8.2,18.6-14.5,25.7-21.2l30.7,22.6
				c-8.6,5.3-16.9,10.8-27.1,18.4l-4.5,3.4c13.3,16.8,18.7,25.1,24.7,39.1C562.8,207.5,565.9,219.9,567.1,234.5z M524.4,237.6
				c-0.6-9.8-2.7-18.3-6.5-27.7c-4.2-11.2-7.6-16.6-18.3-30.9l-56.9,42.4c17,6.4,26.2,9.2,43,12.2
				C500.6,236.3,511.4,237.3,524.4,237.6 M220,284.6l40.4-30.1L175,221.8L220,284.6"/>
		</g>
		<g class="st11">
			<defs>
				<path id="SVGID_00000007398701723829878220000013109739357541094326_" class="st11" d="M226.4,395.7l-0.2,46.8
					c-3.3-7.2-6.5-12.5-16.1-27.2l0.2-46.8C219.9,383.2,223.2,388.5,226.4,395.7z"/>
			</defs>
			<clipPath id="SVGID_00000014634900075859111970000003237724057688822425_">
				<use xlink:href="#SVGID_00000007398701723829878220000013109739357541094326_"  style="overflow:visible;"/>
			</clipPath>
			<g style="clip-path:url(#SVGID_00000014634900075859111970000003237724057688822425_);">
				<path class="st15" d="M226.4,395.7l-0.2,46.8c-3.3-7.2-6.5-12.5-16.1-27.2l0.2-46.8C219.9,383.2,223.2,388.5,226.4,395.7"/>
			</g>
		</g>
	</g>
</g>
</svg>
